<svg xmlns="http://www.w3.org/2000/svg" width="228" height="184" viewBox="0 0 228 184">
<g>
<path d="M 0.00 0.00 L 228.00 0.00 L 228.00 184.00 L 0.00 184.00 ZM 113.00 98.52 C113.00,100.68 113.19,100.74 117.25,99.75 C122.88,98.37 123.74,97.57 123.24,94.20 C122.75,90.81 125.52,83.59 126.98,84.49 C127.54,84.83 128.00,87.34 128.00,90.06 C128.00,92.78 128.35,95.00 128.78,95.00 C130.74,95.00 134.00,91.67 134.00,89.67 C134.00,86.30 140.29,74.05 144.50,69.20 C146.56,66.84 151.64,62.38 155.80,59.31 L 163.37 53.71 L 160.63 51.36 C157.31,48.50 155.41,48.37 154.05,50.90 C153.49,51.95 151.05,53.77 148.62,54.94 C144.70,56.84 143.69,56.95 139.59,55.92 C137.05,55.28 130.85,52.11 125.81,48.88 C117.03,43.25 116.37,43.00 110.14,43.00 C103.95,43.00 103.28,43.25 96.27,48.09 C86.54,54.82 79.62,57.29 74.45,55.86 C72.34,55.28 69.40,53.49 67.91,51.90 C66.42,50.30 64.56,49.00 63.77,49.00 C62.33,49.00 57.31,53.71 58.08,54.33 C58.31,54.52 60.71,56.17 63.40,57.99 C75.06,65.87 84.72,78.68 86.62,88.77 C87.17,91.70 90.14,95.00 92.22,95.00 C92.65,95.00 93.01,92.41 93.03,89.25 L 93.07 83.50 L 95.03 85.86 C96.34,87.43 97.00,89.71 97.00,92.66 C97.00,96.78 97.25,97.21 100.47,98.55 C106.28,100.98 108.00,100.53 108.00,96.58 C108.00,92.27 108.86,90.00 110.48,90.00 C111.75,90.00 113.00,94.23 113.00,98.52 ZM 107.98 126.50 C110.10,127.61 110.99,127.54 113.98,126.04 C115.92,125.07 119.21,123.72 121.30,123.04 C123.86,122.21 125.85,120.61 127.44,118.09 C128.74,116.04 130.88,113.66 132.20,112.79 C133.52,111.93 135.45,109.33 136.49,107.03 C138.10,103.46 138.16,102.72 136.94,101.94 C134.77,100.57 131.70,100.82 129.19,102.58 C127.95,103.45 125.31,104.36 123.33,104.61 C118.50,105.20 118.00,105.62 118.00,109.06 C118.00,112.90 116.12,112.86 115.35,109.00 C114.78,106.16 114.49,106.00 109.88,106.00 C105.12,106.00 105.00,106.08 105.00,109.00 C105.00,112.96 103.22,112.88 102.81,108.90 C102.51,105.88 101.47,105.18 94.00,102.91 C93.72,102.83 92.43,102.35 91.13,101.86 C89.82,101.36 87.25,101.24 85.41,101.58 L 82.07 102.21 L 84.47 106.95 C85.80,109.56 88.07,112.47 89.52,113.42 C90.98,114.38 92.79,116.64 93.54,118.45 C94.67,121.14 95.90,122.06 100.21,123.47 C103.12,124.42 106.62,125.79 107.98,126.50 ZM 115.80 160.50 L 116.09 177.00 L 122.75 177.00 C128.88,177.00 129.66,176.75 132.70,173.80 C136.46,170.16 137.18,164.96 134.35,161.83 C132.81,160.13 132.81,159.87 134.35,158.17 C137.00,155.23 136.46,149.82 133.20,146.69 C130.67,144.26 129.66,144.00 122.95,144.00 L 115.50 144.00 ZM 85.00 150.39 L 85.00 177.13 L 87.75 176.82 C90.21,176.53 90.53,176.05 90.81,172.25 L 91.11 168.00 L 100.00 168.00 L 100.00 172.57 C100.00,176.96 100.11,177.12 102.75,176.82 L 105.50 176.50 L 105.78 163.58 L 106.06 150.66 L 102.83 147.33 C98.34,142.70 92.99,142.65 88.30,147.20 ZM 149.58 97.02 C156.03,98.26 161.93,98.09 164.85,96.58 C168.29,94.80 175.28,87.29 177.51,82.97 L 179.20 79.71 L 176.85 80.45 C166.58,83.66 163.97,84.09 157.50,83.68 C149.49,83.16 145.96,84.82 144.18,89.92 C142.82,93.82 144.51,96.04 149.58,97.02 ZM 51.75 93.05 L 57.41 98.22 L 65.45 97.54 C71.80,97.01 73.97,96.40 75.71,94.68 C77.83,92.59 77.85,92.36 76.31,89.21 C74.04,84.54 71.76,83.69 61.01,83.51 C54.41,83.40 50.19,82.80 47.21,81.55 C44.85,80.56 42.66,80.01 42.34,80.32 C41.28,81.39 46.06,87.85 51.75,93.05 ZM 106.79 68.82 C104.85,70.02 103.03,71.00 102.75,71.00 C101.68,71.00 99.00,65.99 99.00,64.00 C99.00,58.67 106.12,50.00 110.50,50.00 C113.28,50.00 117.91,53.91 120.02,58.04 C122.53,62.96 122.51,65.08 119.93,68.36 L 117.87 70.98 L 114.09 68.81 L 110.32 66.64 ZM 130.52 37.03 C132.10,39.58 142.94,36.05 146.49,31.83 C150.37,27.22 149.87,25.64 144.71,26.22 C142.35,26.49 138.73,27.51 136.67,28.49 C132.92,30.26 129.38,35.19 130.52,37.03 ZM 81.50 36.50 C89.37,39.28 92.73,37.84 89.31,33.15 C85.44,27.83 72.00,23.43 72.00,27.48 C72.00,29.99 77.28,35.01 81.50,36.50 ZM 99.81 157.15 C99.50,161.50 99.50,161.50 95.25,161.81 L 91.00 162.11 L 91.00 157.21 C91.00,152.44 92.96,149.00 95.67,149.00 C98.16,149.00 100.12,152.86 99.81,157.15 ZM 128.17 156.35 C127.17,157.26 125.37,158.00 124.17,158.00 C122.30,158.00 122.00,157.44 122.00,154.00 C122.00,150.44 122.26,150.00 124.42,150.00 C130.00,150.00 131.80,153.06 128.17,156.35 ZM 128.43 170.07 C126.69,171.99 123.93,172.60 122.67,171.33 C122.30,170.97 122.00,169.14 122.00,167.27 C122.00,163.96 122.09,163.89 125.74,164.19 C130.09,164.55 131.21,167.00 128.43,170.07 ZM 151.10 73.25 C149.91,74.80 150.01,75.00 151.98,75.00 C154.63,75.00 159.40,70.17 160.84,66.02 C163.08,59.59 159.64,62.15 151.10,73.25 ZM 65.21 73.43 C68.64,75.84 70.35,75.52 68.87,72.75 C66.75,68.76 61.70,63.00 60.33,63.00 C59.60,63.00 59.00,63.24 59.00,63.54 C59.00,65.24 63.31,72.10 65.21,73.43 Z" fill="rgb(0,0,1)"/>
<path d="M 89.42 101.48 C90.09,101.56 90.68,101.69 91.13,101.86 C92.43,102.35 93.72,102.83 94.00,102.91 C96.53,103.68 98.32,104.27 99.59,104.82 C99.35,104.76 99.09,104.70 98.82,104.64 C96.49,104.08 96.09,104.33 95.82,106.53 C95.35,110.23 93.55,110.04 93.19,106.25 C92.93,103.56 91.66,101.97 89.42,101.48 ZM 124.41 104.42 C126.19,104.05 128.16,103.30 129.19,102.58 C129.35,102.47 129.50,102.37 129.66,102.27 C128.09,103.35 127.00,105.06 127.00,107.06 C127.00,108.68 126.55,110.00 126.00,110.00 C125.45,110.00 125.00,108.64 125.00,106.98 C125.00,105.40 124.93,104.66 124.41,104.42 ZM 103.21 110.87 C103.54,111.78 103.97,112.10 104.33,111.83 C104.23,111.94 104.11,112.00 104.00,112.00 C103.68,112.00 103.40,111.56 103.21,110.87 ZM 118.73 105.88 C119.13,105.49 119.73,105.24 120.63,105.03 C119.72,105.29 119.12,105.53 118.73,105.88 Z" fill="rgb(81,55,107)"/>
<path d="M 85.00 163.76 L 85.00 150.39 L 88.30 147.20 C92.99,142.65 98.34,142.70 102.83,147.33 L 106.06 150.66 L 105.78 163.58 L 105.50 176.50 L 102.75 176.82 C100.11,177.12 100.00,176.96 100.00,172.57 L 100.00 168.00 L 95.56 168.00 L 91.11 168.00 L 90.81 172.25 C90.53,176.05 90.21,176.53 87.75,176.82 L 85.00 177.13 L 85.00 163.76 ZM 99.81 157.15 C100.12,152.86 98.16,149.00 95.67,149.00 C92.96,149.00 91.00,152.44 91.00,157.21 L 91.00 162.11 L 95.25 161.81 C99.50,161.50 99.50,161.50 99.81,157.15 ZM 115.80 160.50 L 115.50 144.00 L 122.95 144.00 C129.66,144.00 130.67,144.26 133.20,146.69 C136.46,149.82 137.00,155.23 134.35,158.17 C132.81,159.87 132.81,160.13 134.35,161.83 C137.18,164.96 136.46,170.16 132.70,173.80 C129.66,176.75 128.88,177.00 122.75,177.00 L 116.09 177.00 L 115.80 160.50 ZM 128.43 170.07 C131.21,167.00 130.09,164.55 125.74,164.19 C122.09,163.89 122.00,163.96 122.00,167.27 C122.00,169.14 122.30,170.97 122.67,171.33 C123.93,172.60 126.69,171.99 128.43,170.07 ZM 128.17 156.35 C131.80,153.06 130.00,150.00 124.42,150.00 C122.26,150.00 122.00,150.44 122.00,154.00 C122.00,157.44 122.30,158.00 124.17,158.00 C125.37,158.00 127.17,157.26 128.17,156.35 ZM 107.98 126.50 C106.62,125.79 103.12,124.42 100.21,123.47 C95.90,122.06 94.67,121.14 93.54,118.45 C92.79,116.64 90.98,114.38 89.52,113.42 C88.07,112.47 85.80,109.56 84.47,106.95 L 82.07 102.21 L 85.52 101.56 C90.21,100.68 92.80,102.27 93.19,106.25 C93.55,110.04 95.35,110.23 95.82,106.53 C96.09,104.33 96.49,104.08 98.82,104.64 C102.75,105.58 103.00,105.84 103.00,109.06 C103.00,110.68 103.45,112.00 104.00,112.00 C104.55,112.00 105.00,110.65 105.00,109.00 C105.00,106.08 105.12,106.00 109.88,106.00 C114.49,106.00 114.78,106.16 115.35,109.00 C116.12,112.86 118.00,112.90 118.00,109.06 C118.00,105.83 118.24,105.58 122.25,104.62 C124.79,104.01 125.00,104.19 125.00,106.98 C125.00,108.64 125.45,110.00 126.00,110.00 C126.55,110.00 127.00,108.68 127.00,107.06 C127.00,102.41 132.89,99.38 136.94,101.94 C138.16,102.72 138.10,103.46 136.49,107.03 C135.45,109.33 133.52,111.93 132.20,112.79 C130.88,113.66 128.74,116.04 127.44,118.09 C125.85,120.61 123.86,122.21 121.30,123.04 C119.21,123.72 115.92,125.07 113.98,126.04 C110.99,127.54 110.10,127.61 107.98,126.50 ZM 113.00 98.52 C113.00,94.23 111.75,90.00 110.48,90.00 C108.86,90.00 108.00,92.27 108.00,96.58 C108.00,100.53 106.28,100.98 100.47,98.55 C97.25,97.21 97.00,96.78 97.00,92.66 C97.00,89.71 96.34,87.43 95.03,85.86 L 93.07 83.50 L 93.03 89.25 C93.01,92.41 92.65,95.00 92.22,95.00 C90.14,95.00 87.17,91.70 86.62,88.77 C84.72,78.68 75.06,65.87 63.40,57.99 C60.71,56.17 58.31,54.52 58.08,54.33 C57.31,53.71 62.33,49.00 63.77,49.00 C64.56,49.00 66.42,50.30 67.91,51.90 C69.40,53.49 72.34,55.28 74.45,55.86 C79.62,57.29 86.54,54.82 96.27,48.09 C103.28,43.25 103.95,43.00 110.14,43.00 C116.37,43.00 117.03,43.25 125.81,48.88 C130.85,52.11 137.05,55.28 139.59,55.92 C143.69,56.95 144.70,56.84 148.62,54.94 C151.05,53.77 153.49,51.95 154.05,50.90 C155.41,48.37 157.31,48.50 160.63,51.36 L 163.37 53.71 L 155.80 59.31 C151.64,62.38 146.56,66.84 144.50,69.20 C140.29,74.05 134.00,86.30 134.00,89.67 C134.00,91.67 130.74,95.00 128.78,95.00 C128.35,95.00 128.00,92.78 128.00,90.06 C128.00,87.34 127.54,84.83 126.98,84.49 C125.52,83.59 122.75,90.81 123.24,94.20 C123.74,97.57 122.88,98.37 117.25,99.75 C113.19,100.74 113.00,100.68 113.00,98.52 ZM 106.79 68.82 L 110.32 66.64 L 114.09 68.81 L 117.87 70.98 L 119.93 68.36 C122.51,65.08 122.53,62.96 120.02,58.04 C117.91,53.91 113.28,50.00 110.50,50.00 C106.12,50.00 99.00,58.67 99.00,64.00 C99.00,65.99 101.68,71.00 102.75,71.00 C103.03,71.00 104.85,70.02 106.79,68.82 ZM 51.75 93.05 C46.06,87.85 41.28,81.39 42.34,80.32 C42.66,80.01 44.85,80.56 47.21,81.55 C50.19,82.80 54.41,83.40 61.01,83.51 C71.76,83.69 74.04,84.54 76.31,89.21 C77.85,92.36 77.83,92.59 75.71,94.68 C73.97,96.40 71.80,97.01 65.45,97.54 L 57.41 98.22 L 51.75 93.05 ZM 149.58 97.02 C144.51,96.04 142.82,93.82 144.18,89.92 C145.96,84.82 149.49,83.16 157.50,83.68 C163.97,84.09 166.58,83.66 176.85,80.45 L 179.20 79.71 L 177.51 82.97 C175.28,87.29 168.29,94.80 164.85,96.58 C161.93,98.09 156.03,98.26 149.58,97.02 ZM 65.21 73.43 C63.31,72.10 59.00,65.24 59.00,63.54 C59.00,63.24 59.60,63.00 60.33,63.00 C61.70,63.00 66.75,68.76 68.87,72.75 C70.35,75.52 68.64,75.84 65.21,73.43 ZM 151.10 73.25 C159.64,62.15 163.08,59.59 160.84,66.02 C159.40,70.17 154.63,75.00 151.98,75.00 C150.01,75.00 149.91,74.80 151.10,73.25 ZM 81.50 36.50 C77.28,35.01 72.00,29.99 72.00,27.48 C72.00,23.43 85.44,27.83 89.31,33.15 C92.73,37.84 89.37,39.28 81.50,36.50 ZM 130.52 37.03 C129.38,35.19 132.92,30.26 136.67,28.49 C138.73,27.51 142.35,26.49 144.71,26.22 C149.87,25.64 150.37,27.22 146.49,31.83 C142.94,36.05 132.10,39.58 130.52,37.03 Z" fill="rgb(185,136,235)"/>
</g>
</svg>